<svg version="1.1" id="Layer_1" xmlns="http://www.w3.org/2000/svg" xmlns:xlink="http://www.w3.org/1999/xlink" x="0px" y="0px"
	 width="100%" viewBox="0 0 512 224" enable-background="new 0 0 512 224" xml:space="preserve">
<path fill="#000000" opacity="1.000000" stroke="none" 
	d="
M477.866028,142.278015 
	C457.052124,142.276810 436.719971,142.199341 416.389832,142.368515 
	C413.894836,142.389267 409.991394,140.391907 409.336548,145.423172 
	C408.301880,153.372711 409.827850,157.278732 415.099487,158.411545 
	C418.654236,159.175400 422.357849,159.536942 425.998383,159.561905 
	C443.329376,159.680832 460.663361,159.763153 477.992065,159.535461 
	C482.709564,159.473465 484.455170,160.816971 484.323639,165.712753 
	C483.961456,179.192230 485.586609,177.251556 472.987915,177.314240 
	C455.823853,177.399628 438.658539,177.303436 421.494202,177.203415 
	C415.080048,177.166046 408.971191,175.711014 403.200775,172.810394 
	C395.635315,169.007431 390.608063,163.209442 390.378998,154.572281 
	C390.004364,140.445419 389.806885,126.290871 390.267944,112.171936 
	C390.653961,100.351257 398.572540,94.258751 408.975677,90.763145 
	C415.214813,88.666725 421.727722,88.197769 428.209320,88.127136 
	C444.705872,87.947350 461.207184,88.183823 477.702942,87.969803 
	C482.472076,87.907928 484.187592,89.544975 484.093018,94.326012 
	C483.833588,107.435898 485.003693,105.967751 472.632263,106.050407 
	C455.636261,106.163971 438.639618,106.184906 421.643768,106.314522 
	C419.838959,106.328285 417.979034,106.600342 416.245209,107.100838 
	C410.079254,108.880753 406.760773,116.620033 409.636353,122.323196 
	C410.808624,124.648239 413.065948,123.925766 414.957214,124.050079 
	C429.108337,124.980225 443.264191,124.071762 457.417969,124.123062 
	C465.078705,124.150833 472.738831,124.479057 480.398987,124.470589 
	C483.214508,124.467476 484.349640,125.510765 484.242340,128.275757 
	C484.139038,130.938049 484.022522,133.626648 484.271545,136.269806 
	C484.696564,140.780823 483.022766,142.934525 477.866028,142.278015 
z"/>
<path fill="#000000" opacity="1.000000" stroke="none" 
	d="
M12.836807,148.877029 
	C13.300055,135.259384 12.071345,122.101120 13.523704,108.977554 
	C14.412404,100.947220 19.187849,96.162460 26.160492,92.988022 
	C36.628471,88.222244 47.750957,87.906044 58.952972,88.001282 
	C71.645119,88.109177 70.114464,87.317307 70.166290,99.404152 
	C70.192909,105.612564 69.783539,105.963844 63.733303,106.042397 
	C56.239899,106.139679 48.739010,106.037743 41.254639,106.345222 
	C34.123421,106.638199 32.228062,108.809830 32.208065,115.915245 
	C32.175251,127.575424 32.304569,139.237549 32.123444,150.895081 
	C32.052147,155.483902 34.388233,158.007507 38.413338,158.464371 
	C53.659027,160.194733 69.011787,160.681854 84.212204,158.618301 
	C94.342911,157.242996 92.849953,153.824402 92.580971,145.514404 
	C92.498383,142.962631 90.269302,143.028656 88.443169,143.009689 
	C83.279930,142.955994 78.113495,142.884506 72.952911,143.009537 
	C69.238251,143.099548 67.328293,141.817932 67.640327,137.789459 
	C67.871185,134.809036 67.868477,131.782135 67.639008,128.801407 
	C67.328232,124.764572 69.180977,123.626755 72.949112,123.676468 
	C84.274200,123.825897 95.603996,123.824951 106.928917,123.666214 
	C110.790085,123.612091 112.289772,124.987595 112.198013,128.905884 
	C112.003082,137.230118 112.304649,145.566513 112.081871,153.889343 
	C111.882553,161.335785 108.780846,167.314972 102.240936,171.358170 
	C96.586380,174.854034 90.497475,177.027359 83.886238,177.116150 
	C70.398125,177.297333 56.904980,177.282791 43.415974,177.145645 
	C36.107613,177.071335 29.385746,174.618134 23.009659,171.157410 
	C14.238499,166.396713 12.911979,158.173737 12.836807,148.877029 
z"/>
<path fill="#000000" opacity="1.000000" stroke="none" 
	d="
M206.000000,124.092773 
	C214.995605,124.105850 223.492111,124.195557 231.986420,124.097122 
	C235.720749,124.053841 237.399658,125.376335 237.318314,129.356247 
	C237.000961,144.882141 239.079605,142.088318 224.867111,142.237320 
	C207.711029,142.417175 190.550079,142.432175 173.395004,142.217239 
	C168.600189,142.157166 166.888733,143.767990 167.048523,148.541153 
	C167.315903,156.527634 166.982758,164.532593 167.138779,172.525146 
	C167.212830,176.318665 165.844727,178.055267 161.943207,177.956970 
	C144.719238,177.522995 147.861420,180.282104 147.697006,164.338074 
	C147.518372,147.015457 147.797668,129.687943 147.600464,112.365723 
	C147.501724,103.692436 151.409744,97.883575 158.822327,93.897270 
	C166.672882,89.675415 175.173080,88.220039 183.886185,88.106850 
	C199.542130,87.903496 215.202545,88.013374 230.860977,88.050079 
	C236.979080,88.064423 237.305984,88.404121 237.266556,94.656303 
	C237.182785,107.935577 238.630737,105.793991 226.267578,106.095985 
	C213.114044,106.417290 199.949722,106.288963 186.790283,106.381592 
	C181.934906,106.415756 177.155975,107.129959 172.566681,108.688751 
	C167.672211,110.351196 164.983917,118.012703 167.608368,122.438896 
	C168.888397,124.597717 171.111359,124.043091 173.017029,124.054367 
	C183.844391,124.118492 194.672287,124.089958 206.000000,124.092773 
z"/>
<path fill="#000000" opacity="1.000000" stroke="none" 
	d="
M304.062469,109.988724 
	C312.595398,124.274612 320.935669,138.251266 329.228973,152.149216 
	C331.834869,151.576035 332.285736,149.548309 333.193970,148.098938 
	C344.770081,129.625275 356.357422,111.157143 367.707214,92.544487 
	C369.817261,89.084175 372.281952,87.592621 376.188446,87.901451 
	C381.223267,88.299484 386.391449,87.122086 391.116638,88.687721 
	C391.702545,90.505783 390.902527,91.434242 390.290283,92.397797 
	C373.868347,118.242332 357.440582,144.083191 341.009552,169.921951 
	C338.606537,173.700806 335.671875,176.768875 330.869019,177.192413 
	C325.064362,177.704285 321.108185,175.089600 318.189819,170.153595 
	C306.164032,149.813873 294.018158,129.545166 281.914429,109.251549 
	C278.020996,102.723640 274.121277,96.199432 269.775879,88.922279 
	C277.215729,87.283875 283.739685,87.716385 290.237061,88.424461 
	C291.801422,88.594933 292.363708,90.399590 293.126068,91.675957 
	C296.709656,97.675751 300.289001,103.678070 304.062469,109.988724 
z"/>
<path fill="#000000" opacity="1.000000" stroke="none" 
	d="
M246.705536,177.176926 
	C244.935303,167.279236 244.947189,157.455719 245.264755,147.713043 
	C245.687927,134.729996 244.991882,121.753517 245.581497,108.786690 
	C246.001129,99.558350 251.912415,93.749916 258.589539,88.485992 
	C260.460205,87.011238 261.910706,87.500465 263.086761,89.478699 
	C265.384735,93.344116 267.712982,97.192093 270.076874,101.017525 
	C271.163055,102.775307 270.809418,104.130760 269.198425,105.308151 
	C265.712311,107.855942 265.137543,111.492668 265.150604,115.509460 
	C265.210754,134.002914 265.175903,152.496750 265.144653,170.990387 
	C265.133331,177.675735 264.894318,177.920013 258.017761,177.889816 
	C254.364349,177.873764 250.680450,178.263321 246.705536,177.176926 
z"/>
<path fill="#000000" opacity="1.000000" stroke="none" 
	d="
M135.963104,120.794662 
	C135.517166,124.156174 134.040253,125.311531 130.919739,125.397781 
	C118.752052,125.734100 118.681259,125.837456 119.705696,113.931267 
	C120.273392,107.333359 121.163689,100.763725 121.854790,94.175697 
	C122.185753,91.020821 123.603935,89.405388 127.016602,89.632050 
	C130.159103,89.840775 133.332443,89.786301 136.482086,89.635864 
	C140.461227,89.445831 141.822128,90.829109 140.920029,94.974312 
	C139.087524,103.394814 137.669998,111.905624 135.963104,120.794662 
z"/>
</svg>