<?xml version="1.0" standalone="no"?>
<!DOCTYPE svg PUBLIC "-//W3C//DTD SVG 20010904//EN"
 "http://www.w3.org/TR/2001/REC-SVG-20010904/DTD/svg10.dtd">
<svg version="1.0" xmlns="http://www.w3.org/2000/svg"
 width="512.000000pt" height="512.000000pt" viewBox="0 0 512.000000 512.000000"
 preserveAspectRatio="xMidYMid meet">
<metadata>
Created by potrace 1.16, written by Peter Selinger 2001-2019
</metadata>
<g transform="translate(0.000000,512.000000) scale(0.100000,-0.100000)"
fill="#000000" stroke="none">
<path d="M780 4048 c-91 -26 -140 -98 -140 -205 1 -117 51 -188 150 -213 32
-8 531 -10 1790 -7 960 2 1750 5 1755 7 6 2 9 79 7 212 -2 119 -7 206 -12 203
-5 -3 -11 -1 -15 5 -8 13 -3487 12 -3535 -2z"/>
<path d="M780 2768 c-91 -26 -140 -98 -140 -205 1 -117 51 -188 150 -213 32
-8 531 -10 1790 -7 960 2 1750 5 1755 7 6 2 9 79 7 212 -2 119 -7 206 -12 203
-5 -3 -11 -1 -15 5 -8 13 -3487 12 -3535 -2z"/>
<path d="M780 1488 c-91 -26 -140 -98 -140 -205 1 -117 51 -188 150 -213 32
-8 531 -10 1790 -7 960 2 1750 5 1755 7 6 2 9 79 7 212 -2 119 -7 206 -12 203
-5 -3 -11 -1 -15 5 -8 13 -3487 12 -3535 -2z"/>
</g>
</svg>
